<svg id="Layer_1" data-name="Layer 1" xmlns="http://www.w3.org/2000/svg" viewBox="0 0 486.17 1000"><defs><style>.cls-1{fill:#231f20;}</style></defs><path class="cls-1" d="M439.5,685.59q-76.11,0-124.23,50.21c-39.06,33.73-58.36,75.51-58.36,125.84,0,37.81,17.87,71.29,54,100.55C342.07,987.48,377.21,1000,416,1000q122.75,0,221.89-102.28,105-105.08,105.17-239,0-130.55-93.5-268.66-29.3-40.9-72.77-93.72Q532.87,243.5,467,172.82V122.61Q467-.12,373.75,0q-50.91,0-77.41,37.56c-23.23,25.3-34.9,56-34.9,93q0,62.67,96.12,168.11c27.27,30.25,56.45,60.25,86.82,89.51,30.73,29.51,60,59.26,88.38,89.76Q630.48,583,630.54,646.05c0,33.47-11.79,63.47-35,89.51C557.64,702.33,505.48,685.59,439.5,685.59Z" transform="translate(-256.91)"/></svg>