<svg id="Layer_1" data-name="Layer 1" xmlns="http://www.w3.org/2000/svg" viewBox="0 0 739.84 1000"><defs><style>.cls-1{fill:#231f20;}</style></defs><path class="cls-1" d="M869.92,882.5C801.18,822.25,743.81,777.06,697.82,744c-45.76-30.12-91.74-60.25-137.5-84.39,143.41-51.15,212.16-135.43,212.16-255.92-2.85-72.31-34.37-138.53-97.42-198.78-20.15-15.06-46-36.22-80.36-57.26-34.38-18-74.66-39.19-123.27-60.24C468.36,27.14,431.14,0,365.24,0,333.71,0,307.87,9.09,282,27.14c-20.14,30.11-28.67,54.25-28.67,81.28q0,54.31,103.33,108.41l200.78,93.48c68.75,36.08,103.13,84.26,103.13,129.45,0,27.12-20.14,48.16-60.2,63.22-31.54,15.07-65.91,24.16-97.45,24.16-43.12,3-106.19-12.09-192.22-39.22-86.06-36.09-137.73-66.23-152-99.33l-28.69,9,80.35,277.08c68.76,9.07,129,27.11,194.87,51.27,69,30.12,132,60.24,197.93,96.34,46,24.14,86,51.17,132,84.39,48.61,33.1,88.9,63.24,126.12,93.36l8.54-117.5Z" transform="translate(-130.08)"/></svg>