<?xml version="1.0" encoding="utf-8"?>
<!-- Generator: Adobe Illustrator 25.4.1, SVG Export Plug-In . SVG Version: 6.00 Build 0)  -->
<svg version="1.1" id="Layer_1" xmlns="http://www.w3.org/2000/svg" xmlns:xlink="http://www.w3.org/1999/xlink" x="0px" y="0px"
	 viewBox="0 0 1000 1000" style="enable-background:new 0 0 1000 1000;" xml:space="preserve">
<style type="text/css">
	.st0{display:none;}
	.st1{display:none;fill:#231F20;}
	.st2{fill:#231F20;}
</style>
<path class="st0" d="M439.5,685.6c-50.7,0-92.1,16.7-124.2,50.2c-39.1,33.7-58.4,75.5-58.4,125.8c0,37.8,17.9,71.3,54,100.5
	c31.2,25.3,66.3,37.8,105.2,37.8c81.8,0,155.8-34.2,221.9-102.3c70-70,105.2-149.8,105.2-239c0-87-31.2-176.5-93.5-268.7
	c-19.5-27.3-43.8-58.5-72.8-93.7C547.5,261.1,511,220.1,467,172.8v-50.2C467,40.8,436,0,373.8,0c-33.9,0-59.8,12.5-77.4,37.6
	c-23.2,25.3-34.9,56-34.9,93c0,41.8,32,97.8,96.1,168.1c27.3,30.3,56.5,60.3,86.8,89.5c30.7,29.5,60,59.3,88.4,89.8
	c65.1,70,97.8,126.1,97.8,168.1c0,33.5-11.8,63.5-35,89.5C557.6,702.3,505.5,685.6,439.5,685.6z"/>
<path class="st1" d="M869.9,882.5C801.2,822.3,743.8,777.1,697.8,744c-45.8-30.1-91.7-60.2-137.5-84.4
	c143.4-51.2,212.2-135.4,212.2-255.9c-2.8-72.3-34.4-138.5-97.4-198.8c-20.2-15.1-46-36.2-80.4-57.3c-34.4-18-74.7-39.2-123.3-60.2
	C468.4,27.1,431.1,0,365.2,0c-31.5,0-57.4,9.1-83.2,27.1c-20.1,30.1-28.7,54.3-28.7,81.3c0,36.2,34.4,72.3,103.3,108.4l200.8,93.5
	c68.8,36.1,103.1,84.3,103.1,129.5c0,27.1-20.1,48.2-60.2,63.2c-31.5,15.1-65.9,24.2-97.5,24.2c-43.1,3-106.2-12.1-192.2-39.2
	c-86.1-36.1-137.7-66.2-152-99.3l-28.7,9l80.4,277.1c68.8,9.1,129,27.1,194.9,51.3c69,30.1,132,60.2,197.9,96.3
	c46,24.1,86,51.2,132,84.4c48.6,33.1,88.9,63.2,126.1,93.4L869.9,882.5L869.9,882.5z"/>
<path class="st2" d="M1000,517.6c0,120.2-33.7,221.3-100.9,303.2c-72.9,93.6-169.7,140.4-290.6,140.4
	c-166.4,0-308.2-98.9-425.6-296.9C86.1,511.2,25.1,343.2,0,160.1l128.2,51c18.2,120.3,64.9,235.1,140.1,344.6
	c93.4,128.8,194.9,193.2,304.3,193.2c66.1,0,132.8-22.8,200-68.6c56.9-44.7,85.4-101.1,85.4-169.2c0-71.1-9.1-126.5-27.3-166
	c-27.4-46.7-73-82.8-136.8-108.4c9.2,25.6,13.7,48.9,13.7,70.3c0,47.8-18.2,88.8-54.7,122.8c-38.8,37.3-85.5,55.9-140.2,55.9
	c-54.7,0-101.4-21.2-140.2-63.9c-36.5-42.6-54.7-90.8-54.7-145.2c0-77.6,25.7-137.1,76.9-178.7c51.3-39.3,117.9-59,200-59
	C710,38.8,806.8,92.6,885.4,200C961.8,296.9,1000,402.7,1000,517.6z"/>
</svg>
