<?xml version="1.0" encoding="utf-8"?>
<!-- Generator: Adobe Illustrator 25.4.1, SVG Export Plug-In . SVG Version: 6.00 Build 0)  -->
<svg version="1.1" id="Layer_1" xmlns="http://www.w3.org/2000/svg" xmlns:xlink="http://www.w3.org/1999/xlink" x="0px" y="0px"
	 viewBox="0 0 1000 1000" style="enable-background:new 0 0 1000 1000;" xml:space="preserve">
<style type="text/css">
	.st0{display:none;}
	.st1{display:none;fill:#231F20;}
	.st2{fill:#221F1F;}
</style>
<path class="st0" d="M439.5,685.6c-50.7,0-92.1,16.7-124.2,50.2c-39.1,33.7-58.4,75.5-58.4,125.8c0,37.8,17.9,71.3,54,100.5
	c31.2,25.3,66.3,37.8,105.2,37.8c81.8,0,155.8-34.2,221.9-102.3c70-70,105.2-149.8,105.2-239c0-87-31.2-176.5-93.5-268.7
	c-19.5-27.3-43.8-58.5-72.8-93.7C547.5,261.1,511,220.1,467,172.8v-50.2C467,40.8,436,0,373.8,0c-33.9,0-59.8,12.5-77.4,37.6
	c-23.2,25.3-34.9,56-34.9,93c0,41.8,32,97.8,96.1,168.1c27.3,30.3,56.5,60.3,86.8,89.5c30.7,29.5,60,59.3,88.4,89.8
	c65.1,70,97.8,126.1,97.8,168.1c0,33.5-11.8,63.5-35,89.5C557.6,702.3,505.5,685.6,439.5,685.6z"/>
<path class="st1" d="M869.9,882.5C801.2,822.3,743.8,777.1,697.8,744c-45.8-30.1-91.7-60.2-137.5-84.4
	c143.4-51.2,212.2-135.4,212.2-255.9c-2.8-72.3-34.4-138.5-97.4-198.8c-20.2-15.1-46-36.2-80.4-57.3c-34.4-18-74.7-39.2-123.3-60.2
	C468.4,27.1,431.1,0,365.2,0c-31.5,0-57.4,9.1-83.2,27.1c-20.1,30.1-28.7,54.3-28.7,81.3c0,36.2,34.4,72.3,103.3,108.4l200.8,93.5
	c68.8,36.1,103.1,84.3,103.1,129.5c0,27.1-20.1,48.2-60.2,63.2c-31.5,15.1-65.9,24.2-97.5,24.2c-43.1,3-106.2-12.1-192.2-39.2
	c-86.1-36.1-137.7-66.2-152-99.3l-28.7,9l80.4,277.1c68.8,9.1,129,27.1,194.9,51.3c69,30.1,132,60.2,197.9,96.3
	c46,24.1,86,51.2,132,84.4c48.6,33.1,88.9,63.2,126.1,93.4L869.9,882.5L869.9,882.5z"/>
<path class="st1" d="M1000,517.6c0,120.2-33.7,221.3-100.9,303.2c-72.9,93.6-169.7,140.4-290.6,140.4
	c-166.4,0-308.2-98.9-425.6-296.9C86.1,511.2,25.1,343.2,0,160.1l128.2,51c18.2,120.3,64.9,235.1,140.1,344.6
	c93.4,128.8,194.9,193.2,304.3,193.2c66.1,0,132.8-22.8,200-68.6c56.9-44.7,85.4-101.1,85.4-169.2c0-71.1-9.1-126.5-27.3-166
	c-27.4-46.7-73-82.8-136.8-108.4c9.2,25.6,13.7,48.9,13.7,70.3c0,47.8-18.2,88.8-54.7,122.8c-38.8,37.3-85.5,55.9-140.2,55.9
	s-101.4-21.2-140.2-63.9c-36.5-42.6-54.7-90.8-54.7-145.2c0-77.6,25.7-137.1,76.9-178.7c51.3-39.3,117.9-59,200-59
	C710,38.8,806.8,92.6,885.4,200C961.8,296.9,1000,402.7,1000,517.6z"/>
<path class="st1" d="M450.3,796.7c30.4-7.4,55.5-14.8,75.6-22.7c19.9-7.8,50.1-25.4,90.2-52.6c43.2-27.1,59.7-57.3,49.5-90.1
	c-10.4-33-26.9-68.3-49.5-106c-15.2-19.9-40.1-46.7-74.8-80.7S470,373.3,431.6,332.4c-38.5-40.7-72.3-81.3-101.6-121.5
	c-29.2-40.2-43.8-73.4-43.8-99.6c0-36.5,8.8-65.4,26-86.3c8.6-11.4,18.9-19.9,30.9-25c8.6,9.4,33,34.2,73.1,74.6
	c40.1,40.2,84,85.3,131.6,135.6c47.6,50.1,94.5,101.9,140.5,155.2c46.1,53.3,78.2,98.2,96.8,134.9c49.8,106.6,50.3,201.5,1.5,284.6
	C737.7,868.1,645.3,930,508.8,970.7c-68.3,23.1-123.5,32.5-165.8,28.3s-75.3-13.1-99.1-26.7c-23.9-13.6-40.1-31.5-48.8-54.1
	c-8.6-22.4-14.6-42-17.9-58.9L450.3,796.7z"/>
<g>
	<path class="st2" d="M500.5,178.5c9.2,12.5,17.9,26.6,26,42.1c7.2,14.6,11.9,30.9,14.6,48.7c2.5,18,1.2,35.3-3.8,51.6
		c-7.2,20.5-18.9,39.4-35.2,56.9c-16.2,17.3-36.2,30-59.5,37.8c-23.4,7.7-48.5,8-75.4,0.7c-27-7.3-51.2-23.4-72.6-48.7
		c-37.7-47.5-46.8-101.4-27.4-161.5C286.4,146,322.4,104.4,375.4,81c24.3-11.6,56.7-22.1,96.9-31.2c40.2-9.3,83.2-11.8,129-8
		c45.7,3.9,93.6,16.4,143.4,37.8c49.8,21.4,97.6,54.4,143.4,98.9c45.7,46.4,78,111.2,96.9,194c18.9,83,19.8,164.2,3.1,243.6
		C971.3,695.8,935,768.3,879,833.6c-56,65.5-137.8,106-245.7,121.5c-72.2,10.7-136.6,3.6-193-20.9
		c-56.6-24.8-107.6-60.3-153.5-106.2c-45.8-46.2-85.9-98.5-120.5-157.2S103.5,555,81.6,499.2c-22-55.7-39.7-108.5-53.5-157.8
		C14.4,291.8,5,255,0,230.9L68.6,260c26.5,103.7,64.1,194.5,113,272c40.7,69.8,93.3,132.8,157.9,189
		c64.7,56.2,145.8,85.8,243.4,88.7c58,0,107.9-12.3,149.5-37.1c41.8-24.8,76.8-54.6,105.4-89.4c28.5-35,49.3-73.2,62.5-115.1
		c13.2-41.6,17.8-78.5,13.7-110.5c0-34.8-8.8-71.4-26.7-109.6c-17.8-38.4-43.9-73-78.5-104.2c-34.6-30.9-77.8-54.1-129.7-69.6
		C627.2,158.5,567.7,160.1,500.5,178.5z"/>
	<path class="st2" d="M657.7,220.6h-44.3h-30.5c28.5,15.5,53.5,32.5,74.8,50.9c19.3,16.4,35.8,35,49.6,55.9
		c13.6,20.9,20.5,44.3,20.5,70.5c0,59.1-13.7,102.1-41.2,128.7c-27.6,26.6-58,49.1-91.5,67.5c7-7.7,8.8-18,5.2-31.2
		c-3.6-13-10.4-24.8-20.5-34.8c-10.3-10.2-24-18-41.3-23.4c-17.3-5.2-36.6-7.5-58-6.6c-42.7,9.8-68.9,29.1-78.5,58.2
		s-11.9,54.4-6.9,75.7c6.1,23.2,25.4,45.7,58,67.6c32.6,21.8,75.8,28.9,129.7,21.1c56-7.7,110.1-33.7,162.5-77.8
		c52.4-44.1,79.1-107.8,80.2-191.3c0-31.2-4.4-59.4-13-85.1c-8.6-25.7-20.7-47.3-35.8-64.8c-13.4-20.2-29.6-38.2-48.9-53.7
		c-9.2-2.9-19.8-6.8-32-11.8C676.6,226.1,663.8,220.6,657.7,220.6z"/>
</g>
</svg>
