<svg id="defult_template" data-name="defult template" xmlns="http://www.w3.org/2000/svg" viewBox="0 0 420.12 630.27"><defs><style>.cls-1,.cls-2,.cls-3,.cls-6{fill:none;}.cls-1,.cls-3{stroke:#b3005a;}.cls-1{stroke-width:0.75px;}.cls-2,.cls-5{stroke:#231f20;}.cls-2{stroke-width:0.8px;}.cls-3,.cls-6{stroke-width:0.5px;}.cls-4,.cls-5{fill:#b3005a;}.cls-5,.cls-6{stroke-miterlimit:10;}.cls-5{stroke-width:0.25px;}.cls-6{stroke:#ed1b32;}.cls-7{font-size:24px;font-family:ExcellentArabicWeb2.0, "Excellent Arabic Web 2.0";}.cls-8{font-size:10px;font-family:Kalpurush;}</style></defs><g id="othe_page_data" data-name="othe page data"><path class="cls-1" d="M355.83,9.58Zm50.33.33Zm-347.29,0ZM360.39,14.7a4.3,4.3,0,0,1-.79-2,5.22,5.22,0,0,1-2.29-1.92c-.59-1.13-1.35-1.24-1.46-1.25H65.58s-.84,0-1.49,1.25a5.19,5.19,0,0,1-2.28,1.92,4.3,4.3,0,0,1-.79,2,4.48,4.48,0,0,0-.7,1.46,4.65,4.65,0,0,0,.7,1.41,4.32,4.32,0,0,1,.8,2,5.17,5.17,0,0,1,2.28,1.91,2.16,2.16,0,0,0,1.37,1.24H355.84s.84,0,1.48-1.26a5.2,5.2,0,0,1,2.29-1.91,4.3,4.3,0,0,1,.79-2,4.74,4.74,0,0,0,.7-1.47,4.92,4.92,0,0,0-.71-1.41Zm50,.34a4.79,4.79,0,0,1-.73-2,4.91,4.91,0,0,1-2.14-1.87c-.54-1.13-1.24-1.23-1.34-1.25H361.83s-.77,0-1.36,1.25a4.93,4.93,0,0,1-2.1,1.92,4.51,4.51,0,0,1-.72,2,4.94,4.94,0,0,0-.64,1.47,4.86,4.86,0,0,0,.64,1.41,4.49,4.49,0,0,1,.73,2,4.88,4.88,0,0,1,2.09,1.91,2,2,0,0,0,1.26,1.24h44.43s.78,0,1.37-1.25a4.93,4.93,0,0,1,2.1-1.92,4.66,4.66,0,0,1,.73-2,4.94,4.94,0,0,0,.64-1.47,4.83,4.83,0,0,0-.65-1.4ZM63.1,15a4.64,4.64,0,0,1-.72-2,4.82,4.82,0,0,1-2.1-1.92C59.73,10,59,9.89,58.93,9.87H14.52s-.77,0-1.36,1.25A4.93,4.93,0,0,1,11.06,13a4.51,4.51,0,0,1-.72,2,4.94,4.94,0,0,0-.64,1.47,4.89,4.89,0,0,0,.65,1.41,4.51,4.51,0,0,1,.72,2,4.88,4.88,0,0,1,2.09,1.91,2,2,0,0,0,1.26,1.24H58.86s.77,0,1.36-1.25a4.93,4.93,0,0,1,2.1-1.92,4.66,4.66,0,0,1,.73-2,4.94,4.94,0,0,0,.64-1.47A4.83,4.83,0,0,0,63,15ZM407.18,608.29Z"/><path class="cls-2" d="M412.7,218.66"/><path class="cls-2" d="M7.63,218.66"/><path class="cls-2" d="M412.7,283.08"/><path class="cls-2" d="M7.63,283.08"/><path class="cls-2" d="M412.7,476.36"/><path class="cls-2" d="M7.63,476.36"/><path class="cls-2" d="M412.7,540.78"/><path class="cls-2" d="M7.63,540.78"/><path class="cls-3" d="M226.52,612.84a6.46,6.46,0,0,1-.45-1.93,4,4,0,0,1-1.3-1.89c-.34-1.11-9.46-1.22-21.34-1.23h-7.5s-.47,0-.84,1.24a3.92,3.92,0,0,1-1.29,1.89,6.78,6.78,0,0,1-.45,1.93,6,6,0,0,0-.39,1.44,6.7,6.7,0,0,0,.4,1.39,6.33,6.33,0,0,1,.45,1.92,4.06,4.06,0,0,1,1.29,1.89c.28.94.63,1.16.77,1.22H224s.48,0,.85-1.23a3.92,3.92,0,0,1,1.29-1.89,6.46,6.46,0,0,1,.45-1.93,6.55,6.55,0,0,0,.4-1.44,7.37,7.37,0,0,0-.4-1.39Z"/><path class="cls-3" d="M189.73,607.79Zm2.9,5a5.87,5.87,0,0,1-.51-1.93,4,4,0,0,1-1.45-1.89c-.38-1.11-.86-1.22-.93-1.23H13.45s-.54,0-.94,1.23a4,4,0,0,1-1.45,1.89,6.12,6.12,0,0,1-.51,1.93,6,6,0,0,0-.44,1.44,5.65,5.65,0,0,0,.45,1.39,6.11,6.11,0,0,1,.5,1.93,4,4,0,0,1,1.46,1.92c.32.94.71,1.16.87,1.21H189.73s.54,0,1-1.24a4,4,0,0,1,1.45-1.89,6.11,6.11,0,0,1,.5-1.93,6,6,0,0,0,.44-1.44,6.08,6.08,0,0,0-.44-1.39Z"/><path class="cls-3" d="M349.92,607.79Zm2.9,5a5.87,5.87,0,0,1-.51-1.93,4,4,0,0,1-1.45-1.89c-.38-1.11-.86-1.22-.92-1.23H230.42s-.53,0-.94,1.23a4,4,0,0,1-1.45,1.89,6.11,6.11,0,0,1-.5,1.93,2.48,2.48,0,0,0,0,2.83,6.12,6.12,0,0,1,.51,1.93,4,4,0,0,1,1.48,1.92c.31.94.7,1.16.86,1.21H349.92s.54,0,1-1.24a4,4,0,0,1,1.45-1.89,6.11,6.11,0,0,1,.5-1.93,6,6,0,0,0,.44-1.44,6.08,6.08,0,0,0-.44-1.39Z"/><path class="cls-3" d="M409.52,612.84a6.11,6.11,0,0,1-.5-1.93,4,4,0,0,1-1.45-1.89c-.38-1.11-.86-1.22-.93-1.23H356.15s-.54,0-.94,1.23a4,4,0,0,1-1.45,1.89,6.12,6.12,0,0,1-.51,1.93,6,6,0,0,0-.44,1.44,6.64,6.64,0,0,0,.45,1.39,6.11,6.11,0,0,1,.5,1.93,4,4,0,0,1,1.45,1.89c.32.94.71,1.16.87,1.22h50.53s.53,0,.94-1.24a4,4,0,0,1,1.45-1.89,5.87,5.87,0,0,1,.51-1.93,6,6,0,0,0,.44-1.44,6.64,6.64,0,0,0-.45-1.39Z"/><path class="cls-4" d="M7.75,7.74q.43,76.85.55,153.7l.07,38.42v269q-.15,76.85-.55,153.7-.44-76.85-.55-153.7v-269l.06-38.42Q7.38,84.6,7.75,7.74Z"/><polygon class="cls-4" points="5.65 5.65 5.72 83.02 5.76 160.39 5.79 315.14 5.76 469.88 5.72 547.26 5.65 624.63 5.58 547.26 5.54 469.88 5.51 315.14 5.54 160.39 5.58 83.02 5.65 5.65"/><polygon class="cls-4" points="0.07 10.34 4.09 12.66 4.09 8.02 0.07 10.34"/><polygon class="cls-4" points="0.07 17.43 4.09 19.75 4.09 15.11 0.07 17.43"/><path class="cls-4" d="M0,16.35V11.46l4.24,2.45Zm.14-4.64V16.1L4,13.91Z"/><path class="cls-4" d="M0,9.17V4.28L4.24,6.73ZM.14,4.53V8.92L4,6.73Z"/><polygon class="cls-4" points="0.07 24.55 4.09 26.87 4.09 22.23 0.07 24.55"/><polygon class="cls-4" points="0.07 31.64 4.09 33.96 4.09 29.32 0.07 31.64"/><path class="cls-4" d="M0,30.56V25.68l4.24,2.49Zm.14-4.63v4.39L4,28.12Z"/><path class="cls-4" d="M0,23.42V18.54L4.24,21Zm.14-4.63v4.38L4,21Z"/><polygon class="cls-4" points="0.07 38.77 4.09 41.09 4.09 36.45 0.07 38.77"/><polygon class="cls-4" points="0.07 45.86 4.09 48.18 4.09 43.54 0.07 45.86"/><path class="cls-4" d="M0,44.78V39.9l4.24,2.44Zm.14-4.64v4.4L4,42.34Z"/><path class="cls-4" d="M0,37.64V32.76l4.24,2.41ZM.14,33v4.4L4,35.2Z"/><polygon class="cls-4" points="0.07 52.99 4.09 55.31 4.09 50.67 0.07 52.99"/><polygon class="cls-4" points="0.07 60.08 4.09 62.4 4.09 57.76 0.07 60.08"/><path class="cls-4" d="M0,59V54.17l4.24,2.44Zm.14-4.64v4.4L4,56.56Z"/><path class="cls-4" d="M0,51.86V47l4.24,2.44Zm.14-4.64v4.4L4,49.42Z"/><polygon class="cls-4" points="0.07 67.2 4.09 69.52 4.09 64.89 0.07 67.2"/><polygon class="cls-4" points="0.07 74.29 4.09 76.61 4.09 71.97 0.07 74.29"/><path class="cls-4" d="M0,73.22V68.33l4.24,2.45Zm.14-4.64V73L4,70.78Z"/><path class="cls-4" d="M0,66.08V61.17l4.24,2.44Zm.14-4.64v4.39L4,63.63Z"/><polygon class="cls-4" points="0.07 81.42 4.09 83.74 4.09 79.1 0.07 81.42"/><polygon class="cls-4" points="0.07 88.51 4.09 90.83 4.09 86.19 0.07 88.51"/><path class="cls-4" d="M0,87.43V82.55L4.24,85Zm.14-4.64v4.38L4,85Z"/><path class="cls-4" d="M0,80.29V75.41l4.24,2.44Zm.14-4.64v4.4L4,77.85Z"/><polygon class="cls-4" points="0.07 95.64 4.09 97.96 4.09 93.32 0.07 95.64"/><polygon class="cls-4" points="0.07 102.73 4.09 105.05 4.09 100.41 0.07 102.73"/><path class="cls-4" d="M0,101.65V96.77l4.24,2.4ZM.14,97v4.4L4,99.21Z"/><path class="cls-4" d="M0,94.51V89.63l4.24,2.44Zm.14-4.64v4.4L4,92.07Z"/><polygon class="cls-4" points="0.07 109.86 4.09 112.18 4.09 107.54 0.07 109.86"/><polygon class="cls-4" points="0.07 116.94 4.09 119.27 4.09 114.63 0.07 116.94"/><path class="cls-4" d="M0,115.87V111l4.24,2.44Zm.14-4.64v4.39L4,113.43Z"/><path class="cls-4" d="M0,108.73v-4.89l4.24,2.45Zm.14-4.64v4.39L4,106.29Z"/><polygon class="cls-4" points="0.07 124.07 4.09 126.39 4.09 121.75 0.07 124.07"/><polygon class="cls-4" points="0.07 131.16 4.09 133.48 4.09 128.84 0.07 131.16"/><path class="cls-4" d="M0,130.09v-4.92l4.24,2.44Zm.14-4.64v4.39L4,127.64Z"/><path class="cls-4" d="M0,122.94v-4.88l4.24,2.44Zm.14-4.63v4.39L4,120.5Z"/><polygon class="cls-4" points="0.07 138.29 4.09 140.61 4.09 135.97 0.07 138.29"/><polygon class="cls-4" points="0.07 145.38 4.09 147.7 4.09 143.06 0.07 145.38"/><path class="cls-4" d="M0,144.3v-4.88l4.24,2.44Zm.14-4.64v4.4L4,141.86Z"/><path class="cls-4" d="M0,137.17v-4.88l4.24,2.44Zm.14-4.64v4.4L4,134.73Z"/><polygon class="cls-4" points="0.07 152.51 4.09 154.83 4.09 150.19 0.07 152.51"/><polygon class="cls-4" points="0.07 159.6 4.09 161.92 4.09 157.28 0.07 159.6"/><path class="cls-4" d="M0,158.52v-4.88l4.24,2.44Zm.14-4.64v4.4L4,156.08Z"/><path class="cls-4" d="M0,151.38V146.5l4.24,2.44Zm.14-4.64v4.43L4,149Z"/><polygon class="cls-4" points="0.07 166.72 4.09 169.04 4.09 164.41 0.07 166.72"/><polygon class="cls-4" points="0.07 173.81 4.09 176.13 4.09 171.5 0.07 173.81"/><path class="cls-4" d="M0,172.74v-4.89l4.24,2.45Zm.14-4.64v4.39L4,170.3Z"/><path class="cls-4" d="M0,165.6v-4.89l4.24,2.46ZM.14,161v4.39L4,163.17Z"/><polygon class="cls-4" points="0.07 180.94 4.09 183.26 4.09 178.62 0.07 180.94"/><polygon class="cls-4" points="0.07 188.03 4.09 190.35 4.09 185.71 0.07 188.03"/><path class="cls-4" d="M0,187v-4.88l4.24,2.44Zm.14-4.64v4.4L4,184.51Z"/><path class="cls-4" d="M0,179.81v-4.88l4.24,2.44Zm.14-4.64v4.4L4,177.37Z"/><polygon class="cls-4" points="0.07 195.16 4.09 197.48 4.09 192.84 0.07 195.16"/><polygon class="cls-4" points="0.07 202.25 4.09 204.57 4.09 199.93 0.07 202.25"/><path class="cls-4" d="M0,201.17v-4.88l4.24,2.44Zm.14-4.64v4.4L4,198.73Z"/><path class="cls-4" d="M0,194v-4.86l4.24,2.44Zm.14-4.64v4.4L4,191.59Z"/><polygon class="cls-4" points="0.07 209.38 4.09 211.7 4.09 207.06 0.07 209.38"/><polygon class="cls-4" points="0.07 216.47 4.09 218.78 4.09 214.15 0.07 216.47"/><path class="cls-4" d="M0,215.39v-4.88L4.24,213Zm.14-4.64v4.42L4,213Z"/><path class="cls-4" d="M0,208.25v-4.88l4.24,2.44Zm.14-4.64V208L4,205.81Z"/><polygon class="cls-4" points="0.07 223.59 4.09 225.91 4.09 221.27 0.07 223.59"/><polygon class="cls-4" points="0.07 230.68 4.09 233 4.09 228.36 0.07 230.68"/><path class="cls-4" d="M0,229.61v-4.89l4.24,2.45ZM.14,225v4.39L4,227.16Z"/><path class="cls-4" d="M0,222.47v-4.89L4.24,220Zm.14-4.64v4.39L4,220Z"/><polygon class="cls-4" points="0.07 237.85 4.09 240.17 4.09 235.53 0.07 237.85"/><polygon class="cls-4" points="0.07 244.94 4.09 247.26 4.09 242.62 0.07 244.94"/><path class="cls-4" d="M0,243.86V239l4.24,2.44Zm.14-4.64v4.4L4,241.42Z"/><path class="cls-4" d="M0,236.72v-4.88l4.24,2.44Zm.14-4.64v4.4L4,234.28Z"/><polygon class="cls-4" points="0.07 252.07 4.09 254.39 4.09 249.75 0.07 252.07"/><polygon class="cls-4" points="0.07 259.16 4.09 261.48 4.09 256.84 0.07 259.16"/><path class="cls-4" d="M0,258.08v-4.91l4.24,2.44Zm.14-4.64v4.4L4,255.64Z"/><path class="cls-4" d="M0,250.94v-4.88l4.24,2.44Zm.14-4.64v4.4L4,248.5Z"/><polygon class="cls-4" points="0.07 266.29 4.09 268.61 4.09 263.97 0.07 266.29"/><polygon class="cls-4" points="0.07 273.38 4.09 275.69 4.09 271.06 0.07 273.38"/><path class="cls-4" d="M0,272.3v-4.89l4.24,2.45Zm.14-4.64v4.39L4,269.86Z"/><path class="cls-4" d="M0,265.17v-4.9l4.24,2.45Zm.14-4.64v4.39L4,262.73Z"/><polygon class="cls-4" points="0.07 280.5 4.09 282.82 4.09 278.18 0.07 280.5"/><polygon class="cls-4" points="0.07 287.59 4.09 289.91 4.09 285.27 0.07 287.59"/><path class="cls-4" d="M0,286.51v-4.88l4.24,2.44Zm.14-4.63v4.39L4,284.07Z"/><path class="cls-4" d="M0,279.37v-4.88l4.24,2.44Zm.14-4.63v4.43L4,277Z"/><polygon class="cls-4" points="0.07 294.72 4.09 297.04 4.09 292.4 0.07 294.72"/><polygon class="cls-4" points="0.07 301.81 4.09 304.13 4.09 299.49 0.07 301.81"/><path class="cls-4" d="M0,300.73v-4.88l4.24,2.44Zm.14-4.64v4.4L4,298.29Z"/><path class="cls-4" d="M0,293.59v-4.88l4.24,2.46ZM.14,289v4.4L4,291.15Z"/><polygon class="cls-4" points="0.07 308.94 4.09 311.26 4.09 306.62 0.07 308.94"/><polygon class="cls-4" points="0.07 316.03 4.09 318.35 4.09 313.71 0.07 316.03"/><path class="cls-4" d="M0,315v-4.88l4.24,2.44Zm.14-4.64v4.4L4,312.51Z"/><path class="cls-4" d="M0,307.81v-4.88l4.24,2.44Zm.14-4.64v4.39L4,305.37Z"/><polygon class="cls-4" points="0.07 323.15 4.09 325.47 4.09 320.83 0.07 323.15"/><polygon class="cls-4" points="0.07 330.24 4.09 332.56 4.09 327.92 0.07 330.24"/><path class="cls-4" d="M0,329.17v-4.89l4.24,2.44Zm.14-4.64v4.39L4,326.72Z"/><path class="cls-4" d="M0,322v-4.86l4.24,2.44Zm.14-4.64v4.39L4,319.58Z"/><polygon class="cls-4" points="0.07 337.37 4.09 339.69 4.09 335.05 0.07 337.37"/><polygon class="cls-4" points="0.07 344.46 4.09 346.78 4.09 342.14 0.07 344.46"/><path class="cls-4" d="M0,343.38V338.5l4.24,2.44Zm.14-4.64v4.43L4,341Z"/><path class="cls-4" d="M0,336.24v-4.88l4.24,2.44Zm.14-4.64V336L4,333.8Z"/><polygon class="cls-4" points="0.07 351.59 4.09 353.91 4.09 349.27 0.07 351.59"/><polygon class="cls-4" points="0.07 358.68 4.09 361 4.09 356.36 0.07 358.68"/><path class="cls-4" d="M0,357.6v-4.88l4.24,2.45ZM.14,353v4.4L4,355.16Z"/><path class="cls-4" d="M0,350.46v-4.88L4.24,348Zm.14-4.64v4.4L4,348Z"/><polygon class="cls-4" points="0.07 365.81 4.09 368.13 4.09 363.49 0.07 365.81"/><polygon class="cls-4" points="0.07 372.89 4.09 375.21 4.09 370.57 0.07 372.89"/><path class="cls-4" d="M0,371.82v-4.89l4.24,2.45Zm.14-4.64v4.39L4,369.38Z"/><path class="cls-4" d="M0,364.68v-4.89l4.24,2.45ZM.14,360v4.39L4,362.24Z"/><polygon class="cls-4" points="0.07 380.02 4.09 382.34 4.09 377.7 0.07 380.02"/><polygon class="cls-4" points="0.07 387.11 4.09 389.43 4.09 384.79 0.07 387.11"/><path class="cls-4" d="M0,386v-4.86l4.24,2.44Zm.14-4.63v4.39L4,383.59Z"/><path class="cls-4" d="M0,378.89V374l4.24,2.44Zm.14-4.63v4.39L4,376.45Z"/><polygon class="cls-4" points="0.07 394.24 4.09 396.56 4.09 391.92 0.07 394.24"/><polygon class="cls-4" points="0.07 401.33 4.09 403.65 4.09 399.01 0.07 401.33"/><path class="cls-4" d="M0,400.25v-4.88l4.24,2.44Zm.14-4.64V400L4,397.81Z"/><path class="cls-4" d="M0,393.11v-4.88l4.24,2.44Zm.14-4.64v4.4L4,390.67Z"/><polygon class="cls-4" points="0.07 408.46 4.09 410.78 4.09 406.14 0.07 408.46"/><polygon class="cls-4" points="0.07 415.55 4.09 417.87 4.09 413.23 0.07 415.55"/><path class="cls-4" d="M0,414.47v-4.88L4.24,412Zm.14-4.64v4.4L4,412Z"/><path class="cls-4" d="M0,407.33v-4.88l4.24,2.44Zm.14-4.64v4.39L4,404.89Z"/><polygon class="cls-4" points="0.07 422.68 4.09 424.99 4.09 420.36 0.07 422.68"/><polygon class="cls-4" points="0.07 429.76 4.09 432.08 4.09 427.44 0.07 429.76"/><path class="cls-4" d="M0,428.69V423.8l4.24,2.44Zm.14-4.64v4.39L4,426.24Z"/><path class="cls-4" d="M0,421.55v-4.89l4.24,2.44Zm.14-4.64v4.39L4,419.1Z"/><polygon class="cls-4" points="0.07 436.93 4.09 439.25 4.09 434.61 0.07 436.93"/><polygon class="cls-4" points="0.07 444.02 4.09 446.34 4.09 441.7 0.07 444.02"/><path class="cls-4" d="M0,442.94v-4.88l4.24,2.44Zm.14-4.64v4.4L4,440.5Z"/><path class="cls-4" d="M0,435.8v-4.88l4.24,2.44Zm.14-4.64v4.4L4,433.36Z"/><polygon class="cls-4" points="0.07 451.15 4.09 453.47 4.09 448.83 0.07 451.15"/><polygon class="cls-4" points="0.07 458.24 4.09 460.56 4.09 455.92 0.07 458.24"/><path class="cls-4" d="M0,457.17v-4.88l4.24,2.44Zm.14-4.64v4.4L4,454.73Z"/><path class="cls-4" d="M0,450v-4.85l4.24,2.44Zm.14-4.64v4.4L4,447.58Z"/><polygon class="cls-4" points="0.07 465.37 4.09 467.69 4.09 463.05 0.07 465.37"/><polygon class="cls-4" points="0.07 472.45 4.09 474.77 4.09 470.14 0.07 472.45"/><path class="cls-4" d="M0,471.38V466.5l4.24,2.44Zm.14-4.64v4.43L4,469Z"/><path class="cls-4" d="M0,464.24v-4.89l4.24,2.45Zm.14-4.64V464L4,461.8Z"/><polygon class="cls-4" points="0.07 479.58 4.09 481.9 4.09 477.26 0.07 479.58"/><polygon class="cls-4" points="0.07 486.67 4.09 488.99 4.09 484.35 0.07 486.67"/><path class="cls-4" d="M0,485.6v-4.89l4.24,2.46ZM.14,481v4.39L4,483.15Z"/><path class="cls-4" d="M0,478.45v-4.88L4.24,476Zm.14-4.63v4.35L4,476Z"/><polygon class="cls-4" points="0.07 493.8 4.09 496.12 4.09 491.48 0.07 493.8"/><polygon class="cls-4" points="0.07 500.89 4.09 503.21 4.09 498.57 0.07 500.89"/><path class="cls-4" d="M0,499.81v-4.88l4.24,2.44Zm.14-4.64v4.4L4,497.37Z"/><path class="cls-4" d="M0,492.67v-4.88l4.24,2.44ZM.14,488v4.4L4,490.23Z"/><polygon class="cls-4" points="0.07 508.02 4.09 510.34 4.09 505.7 0.07 508.02"/><polygon class="cls-4" points="0.07 515.11 4.09 517.43 4.09 512.79 0.07 515.11"/><path class="cls-4" d="M0,514v-4.86l4.24,2.44Zm.14-4.64v4.4L4,511.59Z"/><path class="cls-4" d="M0,506.89V502l4.24,2.44Zm.14-4.64v4.4L4,504.45Z"/><polygon class="cls-4" points="0.07 522.24 4.09 524.55 4.09 519.92 0.07 522.24"/><polygon class="cls-4" points="0.07 529.32 4.09 531.64 4.09 527 0.07 529.32"/><path class="cls-4" d="M0,528.25v-4.89l4.24,2.45Zm.14-4.64V528L4,525.81Z"/><path class="cls-4" d="M0,521.11v-4.89l4.24,2.44Zm.14-4.64v4.39L4,518.66Z"/><polygon class="cls-4" points="0.07 536.45 4.09 538.77 4.09 534.13 0.07 536.45"/><polygon class="cls-4" points="0.07 543.54 4.09 545.86 4.09 541.22 0.07 543.54"/><path class="cls-4" d="M0,542.46v-4.88L4.24,540Zm.14-4.64v4.4L4,540Z"/><path class="cls-4" d="M0,535.32v-4.88l4.24,2.44Zm.14-4.64v4.4L4,532.88Z"/><polygon class="cls-4" points="0.07 550.67 4.09 552.99 4.09 548.35 0.07 550.67"/><polygon class="cls-4" points="0.07 557.76 4.09 560.08 4.09 555.44 0.07 557.76"/><path class="cls-4" d="M0,556.68V551.8l4.24,2.44ZM.14,552v4.4L4,554.24Z"/><path class="cls-4" d="M0,549.54v-4.88l4.24,2.44Zm.14-4.64v4.4L4,547.1Z"/><polygon class="cls-4" points="0.07 564.89 4.09 567.21 4.09 562.57 0.07 564.89"/><polygon class="cls-4" points="0.07 571.98 4.09 574.29 4.09 569.66 0.07 571.98"/><path class="cls-4" d="M0,570.9V566l4.24,2.44Zm.14-4.64v4.39L4,568.46Z"/><path class="cls-4" d="M0,563.76v-4.88l4.24,2.44Zm.14-4.64v4.39L4,561.32Z"/><polygon class="cls-4" points="0.07 579.1 4.09 581.42 4.09 576.78 0.07 579.1"/><polygon class="cls-4" points="0.07 586.19 4.09 588.51 4.09 583.87 0.07 586.19"/><path class="cls-4" d="M0,585.17v-4.89l4.24,2.44Zm.14-4.64v4.39L4,582.72Z"/><path class="cls-4" d="M0,578v-4.89l4.24,2.44Zm.14-4.64v4.39L4,575.53Z"/><polygon class="cls-4" points="0.07 593.32 4.09 595.64 4.09 591 0.07 593.32"/><polygon class="cls-4" points="0.07 600.41 4.09 602.73 4.09 598.09 0.07 600.41"/><path class="cls-4" d="M0,599.33v-4.88l4.24,2.44Zm.14-4.64v4.4L4,596.89Z"/><path class="cls-4" d="M0,592.17v-4.88l4.24,2.44Zm.14-4.64v4.4L4,589.73Z"/><polygon class="cls-4" points="0.07 607.54 4.09 609.86 4.09 605.22 0.07 607.54"/><polygon class="cls-4" points="0.07 614.63 4.09 616.95 4.09 612.31 0.07 614.63"/><path class="cls-4" d="M0,613.55v-4.88l4.24,2.44Zm.14-4.64v4.4L4,611.11Z"/><path class="cls-4" d="M0,606.41v-4.88L4.24,604Zm.14-4.64v4.4L4,604Z"/><polygon class="cls-4" points="0.07 621.75 4.09 624.08 4.09 619.44 0.07 621.75"/><path class="cls-4" d="M0,627.77v-4.89l4.24,2.45Zm.14-4.64v4.39L4,625.33Z"/><path class="cls-4" d="M0,620.63v-4.89l4.24,2.43ZM.14,616v4.39L4,618.17Z"/><path class="cls-5" d="M412.35,7.74q-.44,76.85-.55,153.7l-.07,38.42v269q.15,76.85.55,153.69.44-76.85.55-153.69V430.41l.05-38.42V238.29l-.05-38.43-.07-38.42Q412.75,84.58,412.35,7.74Z"/><polygon class="cls-4" points="414.44 5.65 414.37 83.02 414.33 160.39 414.3 315.14 414.33 469.88 414.37 547.25 414.44 624.63 414.51 547.25 414.55 469.88 414.58 315.14 414.55 160.39 414.51 83.02 414.44 5.65"/><polygon class="cls-4" points="420.02 10.34 416 12.66 416 8.02 420.02 10.34"/><polygon class="cls-4" points="420.02 17.43 416 19.75 416 15.11 420.02 17.43"/><path class="cls-4" d="M420.09,16.35V11.46l-4.23,2.45ZM420,11.71V16.1l-3.81-2.19Z"/><path class="cls-4" d="M420.09,9.17V4.28l-4.23,2.45ZM420,4.53V8.92l-3.81-2.19Z"/><polygon class="cls-4" points="420.02 24.55 416 26.87 416 22.23 420.02 24.55"/><polygon class="cls-4" points="420.02 31.64 416 33.96 416 29.32 420.02 31.64"/><path class="cls-4" d="M420.09,30.56V25.68l-4.23,2.49ZM420,25.93v4.39l-3.81-2.2Z"/><path class="cls-4" d="M420.09,23.42V18.54L415.86,21ZM420,18.79v4.38L416.14,21Z"/><polygon class="cls-4" points="420.02 38.77 416 41.09 416 36.45 420.02 38.77"/><polygon class="cls-4" points="420.02 45.86 416 48.18 416 43.54 420.02 45.86"/><path class="cls-4" d="M420.09,44.78V39.9l-4.23,2.44ZM420,40.14v4.4l-3.81-2.2Z"/><path class="cls-4" d="M420.09,37.64V32.76l-4.23,2.41ZM420,33v4.4l-3.81-2.2Z"/><polygon class="cls-4" points="420.02 52.99 416 55.31 416 50.67 420.02 52.99"/><polygon class="cls-4" points="420.02 60.08 416 62.4 416 57.76 420.02 60.08"/><path class="cls-4" d="M420.09,59V54.17l-4.23,2.44ZM420,54.36v4.4l-3.81-2.2Z"/><path class="cls-4" d="M420.09,51.86V47l-4.23,2.44ZM420,47.22v4.4l-3.81-2.2Z"/><polygon class="cls-4" points="420.02 67.2 416 69.52 416 64.89 420.02 67.2"/><polygon class="cls-4" points="420.02 74.29 416 76.61 416 71.97 420.02 74.29"/><path class="cls-4" d="M420.09,73.22V68.33l-4.23,2.45ZM420,68.58V73l-3.81-2.19Z"/><path class="cls-4" d="M420.09,66.08V61.17l-4.23,2.44ZM420,61.44v4.39l-3.81-2.2Z"/><polygon class="cls-4" points="420.02 81.42 416 83.74 416 79.1 420.02 81.42"/><polygon class="cls-4" points="420.02 88.51 416 90.83 416 86.19 420.02 88.51"/><path class="cls-4" d="M420.09,87.43V82.55L415.86,85ZM420,82.79v4.38L416.14,85Z"/><path class="cls-4" d="M420.09,80.29V75.41l-4.23,2.44ZM420,75.65v4.4l-3.81-2.2Z"/><polygon class="cls-4" points="420.02 95.64 416 97.96 416 93.32 420.02 95.64"/><polygon class="cls-4" points="420.02 102.73 416 105.05 416 100.41 420.02 102.73"/><path class="cls-4" d="M420.09,101.65V96.77l-4.23,2.4ZM420,97v4.4l-3.81-2.2Z"/><path class="cls-4" d="M420.09,94.51V89.63l-4.23,2.44ZM420,89.87v4.4l-3.81-2.2Z"/><polygon class="cls-4" points="420.02 109.86 416 112.18 416 107.54 420.02 109.86"/><polygon class="cls-4" points="420.02 116.94 416 119.27 416 114.63 420.02 116.94"/><path class="cls-4" d="M420.09,115.87V111l-4.23,2.44Zm-.14-4.64v4.39l-3.81-2.19Z"/><path class="cls-4" d="M420.09,108.73v-4.89l-4.23,2.45Zm-.14-4.64v4.39l-3.81-2.19Z"/><polygon class="cls-4" points="420.02 124.07 416 126.39 416 121.75 420.02 124.07"/><polygon class="cls-4" points="420.02 131.16 416 133.48 416 128.84 420.02 131.16"/><path class="cls-4" d="M420.09,130.09v-4.92l-4.23,2.44Zm-.14-4.64v4.39l-3.81-2.2Z"/><path class="cls-4" d="M420.09,122.94v-4.88l-4.23,2.44Zm-.14-4.63v4.39l-3.81-2.2Z"/><polygon class="cls-4" points="420.02 138.29 416 140.61 416 135.97 420.02 138.29"/><polygon class="cls-4" points="420.02 145.38 416 147.7 416 143.06 420.02 145.38"/><path class="cls-4" d="M420.09,144.3v-4.88l-4.23,2.44Zm-.14-4.64v4.4l-3.81-2.2Z"/><path class="cls-4" d="M420.09,137.17v-4.88l-4.23,2.44Zm-.14-4.64v4.4l-3.81-2.2Z"/><polygon class="cls-4" points="420.02 152.51 416 154.83 416 150.19 420.02 152.51"/><polygon class="cls-4" points="420.02 159.6 416 161.92 416 157.28 420.02 159.6"/><path class="cls-4" d="M420.09,158.52v-4.88l-4.23,2.44Zm-.14-4.64v4.4l-3.81-2.2Z"/><path class="cls-4" d="M420.09,151.38V146.5l-4.23,2.44Zm-.14-4.64v4.43l-3.81-2.2Z"/><polygon class="cls-4" points="420.02 166.72 416 169.04 416 164.41 420.02 166.72"/><polygon class="cls-4" points="420.02 173.81 416 176.13 416 171.5 420.02 173.81"/><path class="cls-4" d="M420.09,172.74v-4.89l-4.23,2.45ZM420,168.1v4.39l-3.81-2.19Z"/><path class="cls-4" d="M420.09,165.6v-4.89l-4.23,2.46ZM420,161v4.39l-3.81-2.18Z"/><polygon class="cls-4" points="420.02 180.94 416 183.26 416 178.62 420.02 180.94"/><polygon class="cls-4" points="420.02 188.03 416 190.35 416 185.71 420.02 188.03"/><path class="cls-4" d="M420.09,187v-4.88l-4.23,2.44Zm-.14-4.64v4.4l-3.81-2.2Z"/><path class="cls-4" d="M420.09,179.81v-4.88l-4.23,2.44Zm-.14-4.64v4.4l-3.81-2.2Z"/><polygon class="cls-4" points="420.02 195.16 416 197.48 416 192.84 420.02 195.16"/><polygon class="cls-4" points="420.02 202.25 416 204.57 416 199.93 420.02 202.25"/><path class="cls-4" d="M420.09,201.17v-4.88l-4.23,2.44Zm-.14-4.64v4.4l-3.81-2.2Z"/><path class="cls-4" d="M420.09,194v-4.86l-4.23,2.44Zm-.14-4.64v4.4l-3.81-2.2Z"/><polygon class="cls-4" points="420.02 209.38 416 211.7 416 207.06 420.02 209.38"/><polygon class="cls-4" points="420.02 216.47 416 218.78 416 214.15 420.02 216.47"/><path class="cls-4" d="M420.09,215.39v-4.88L415.86,213Zm-.14-4.64v4.42L416.14,213Z"/><path class="cls-4" d="M420.09,208.25v-4.88l-4.23,2.44Zm-.14-4.64V208l-3.81-2.19Z"/><polygon class="cls-4" points="420.02 223.59 416 225.91 416 221.27 420.02 223.59"/><polygon class="cls-4" points="420.02 230.68 416 233 416 228.36 420.02 230.68"/><path class="cls-4" d="M420.09,229.61v-4.89l-4.23,2.45ZM420,225v4.39l-3.81-2.2Z"/><path class="cls-4" d="M420.09,222.47v-4.89L415.86,220Zm-.14-4.64v4.39l-3.81-2.2Z"/><polygon class="cls-4" points="420.02 237.85 416 240.17 416 235.53 420.02 237.85"/><polygon class="cls-4" points="420.02 244.94 416 247.26 416 242.62 420.02 244.94"/><path class="cls-4" d="M420.09,243.86V239l-4.23,2.44Zm-.14-4.64v4.4l-3.81-2.2Z"/><path class="cls-4" d="M420.09,236.72v-4.88l-4.23,2.44Zm-.14-4.64v4.4l-3.81-2.2Z"/><polygon class="cls-4" points="420.02 252.07 416 254.39 416 249.75 420.02 252.07"/><polygon class="cls-4" points="420.02 259.16 416 261.48 416 256.84 420.02 259.16"/><path class="cls-4" d="M420.09,258.08v-4.91l-4.23,2.44Zm-.14-4.64v4.4l-3.81-2.2Z"/><path class="cls-4" d="M420.09,250.94v-4.88l-4.23,2.44ZM420,246.3v4.4l-3.81-2.2Z"/><polygon class="cls-4" points="420.02 266.29 416 268.61 416 263.97 420.02 266.29"/><polygon class="cls-4" points="420.02 273.38 416 275.69 416 271.06 420.02 273.38"/><path class="cls-4" d="M420.09,272.3v-4.89l-4.23,2.45Zm-.14-4.64v4.39l-3.81-2.19Z"/><path class="cls-4" d="M420.09,265.17v-4.9l-4.23,2.45Zm-.14-4.64v4.39l-3.81-2.19Z"/><polygon class="cls-4" points="420.02 280.5 416 282.82 416 278.18 420.02 280.5"/><polygon class="cls-4" points="420.02 287.59 416 289.91 416 285.27 420.02 287.59"/><path class="cls-4" d="M420.09,286.51v-4.88l-4.23,2.44Zm-.14-4.63v4.39l-3.81-2.2Z"/><path class="cls-4" d="M420.09,279.37v-4.88l-4.23,2.44Zm-.14-4.63v4.43l-3.81-2.2Z"/><polygon class="cls-4" points="420.02 294.72 416 297.04 416 292.4 420.02 294.72"/><polygon class="cls-4" points="420.02 301.81 416 304.13 416 299.49 420.02 301.81"/><path class="cls-4" d="M420.09,300.73v-4.88l-4.23,2.44Zm-.14-4.64v4.4l-3.81-2.2Z"/><path class="cls-4" d="M420.09,293.59v-4.88l-4.23,2.46ZM420,289v4.4l-3.81-2.2Z"/><polygon class="cls-4" points="420.02 308.94 416 311.26 416 306.62 420.02 308.94"/><polygon class="cls-4" points="420.02 316.03 416 318.35 416 313.71 420.02 316.03"/><path class="cls-4" d="M420.09,315v-4.88l-4.23,2.44Zm-.14-4.64v4.4l-3.81-2.2Z"/><path class="cls-4" d="M420.09,307.81v-4.88l-4.23,2.44Zm-.14-4.64v4.39l-3.81-2.19Z"/><polygon class="cls-4" points="420.02 323.15 416 325.47 416 320.83 420.02 323.15"/><polygon class="cls-4" points="420.02 330.24 416 332.56 416 327.92 420.02 330.24"/><path class="cls-4" d="M420.09,329.17v-4.89l-4.23,2.44Zm-.14-4.64v4.39l-3.81-2.2Z"/><path class="cls-4" d="M420.09,322v-4.86l-4.23,2.44Zm-.14-4.64v4.39l-3.81-2.2Z"/><polygon class="cls-4" points="420.02 337.37 416 339.69 416 335.05 420.02 337.37"/><polygon class="cls-4" points="420.02 344.46 416 346.78 416 342.14 420.02 344.46"/><path class="cls-4" d="M420.09,343.38V338.5l-4.23,2.44Zm-.14-4.64v4.43l-3.81-2.2Z"/><path class="cls-4" d="M420.09,336.24v-4.88l-4.23,2.44ZM420,331.6V336l-3.81-2.2Z"/><polygon class="cls-4" points="420.02 351.59 416 353.91 416 349.27 420.02 351.59"/><polygon class="cls-4" points="420.02 358.68 416 361 416 356.36 420.02 358.68"/><path class="cls-4" d="M420.09,357.6v-4.88l-4.23,2.45ZM420,353v4.4l-3.81-2.2Z"/><path class="cls-4" d="M420.09,350.46v-4.88L415.86,348Zm-.14-4.64v4.4l-3.81-2.2Z"/><polygon class="cls-4" points="420.02 365.81 416 368.13 416 363.49 420.02 365.81"/><polygon class="cls-4" points="420.02 372.89 416 375.21 416 370.57 420.02 372.89"/><path class="cls-4" d="M420.09,371.82v-4.89l-4.23,2.45Zm-.14-4.64v4.39l-3.81-2.19Z"/><path class="cls-4" d="M420.09,364.68v-4.89l-4.23,2.45ZM420,360v4.39l-3.81-2.19Z"/><polygon class="cls-4" points="420.02 380.02 416 382.34 416 377.7 420.02 380.02"/><polygon class="cls-4" points="420.02 387.11 416 389.43 416 384.79 420.02 387.11"/><path class="cls-4" d="M420.09,386v-4.86l-4.23,2.44ZM420,381.4v4.39l-3.81-2.2Z"/><path class="cls-4" d="M420.09,378.89V374l-4.23,2.44Zm-.14-4.63v4.39l-3.81-2.2Z"/><polygon class="cls-4" points="420.02 394.24 416 396.56 416 391.92 420.02 394.24"/><polygon class="cls-4" points="420.02 401.33 416 403.65 416 399.01 420.02 401.33"/><path class="cls-4" d="M420.09,400.25v-4.88l-4.23,2.44Zm-.14-4.64V400l-3.81-2.2Z"/><path class="cls-4" d="M420.09,393.11v-4.88l-4.23,2.44Zm-.14-4.64v4.4l-3.81-2.2Z"/><polygon class="cls-4" points="420.02 408.46 416 410.78 416 406.14 420.02 408.46"/><polygon class="cls-4" points="420.02 415.55 416 417.87 416 413.23 420.02 415.55"/><path class="cls-4" d="M420.09,414.47v-4.88L415.86,412Zm-.14-4.64v4.4l-3.81-2.2Z"/><path class="cls-4" d="M420.09,407.33v-4.88l-4.23,2.44Zm-.14-4.64v4.39l-3.81-2.19Z"/><polygon class="cls-4" points="420.02 422.68 416 424.99 416 420.36 420.02 422.68"/><polygon class="cls-4" points="420.02 429.76 416 432.08 416 427.44 420.02 429.76"/><path class="cls-4" d="M420.09,428.69V423.8l-4.23,2.44Zm-.14-4.64v4.39l-3.81-2.2Z"/><path class="cls-4" d="M420.09,421.55v-4.89l-4.23,2.44Zm-.14-4.64v4.39l-3.81-2.2Z"/><polygon class="cls-4" points="420.02 436.93 416 439.25 416 434.61 420.02 436.93"/><polygon class="cls-4" points="420.02 444.02 416 446.34 416 441.7 420.02 444.02"/><path class="cls-4" d="M420.09,442.94v-4.88l-4.23,2.44ZM420,438.3v4.4l-3.81-2.2Z"/><path class="cls-4" d="M420.09,435.8v-4.88l-4.23,2.44Zm-.14-4.64v4.4l-3.81-2.2Z"/><polygon class="cls-4" points="420.02 451.15 416 453.47 416 448.83 420.02 451.15"/><polygon class="cls-4" points="420.02 458.24 416 460.56 416 455.92 420.02 458.24"/><path class="cls-4" d="M420.09,457.17v-4.88l-4.23,2.44Zm-.14-4.64v4.4l-3.81-2.2Z"/><path class="cls-4" d="M420.09,450v-4.85l-4.23,2.44Zm-.14-4.64v4.4l-3.81-2.2Z"/><polygon class="cls-4" points="420.02 465.37 416 467.69 416 463.05 420.02 465.37"/><polygon class="cls-4" points="420.02 472.45 416 474.77 416 470.14 420.02 472.45"/><path class="cls-4" d="M420.09,471.38V466.5l-4.23,2.44Zm-.14-4.64v4.43L416.14,469Z"/><path class="cls-4" d="M420.09,464.24v-4.89l-4.23,2.45ZM420,459.6V464l-3.81-2.19Z"/><polygon class="cls-4" points="420.02 479.58 416 481.9 416 477.26 420.02 479.58"/><polygon class="cls-4" points="420.02 486.67 416 488.99 416 484.35 420.02 486.67"/><path class="cls-4" d="M420.09,485.6v-4.89l-4.23,2.46ZM420,481v4.39l-3.81-2.2Z"/><path class="cls-4" d="M420.09,478.45v-4.88L415.86,476Zm-.14-4.63v4.35l-3.81-2.2Z"/><polygon class="cls-4" points="420.02 493.8 416 496.12 416 491.48 420.02 493.8"/><polygon class="cls-4" points="420.02 500.89 416 503.21 416 498.57 420.02 500.89"/><path class="cls-4" d="M420.09,499.81v-4.88l-4.23,2.44Zm-.14-4.64v4.4l-3.81-2.2Z"/><path class="cls-4" d="M420.09,492.67v-4.88l-4.23,2.44ZM420,488v4.4l-3.81-2.2Z"/><polygon class="cls-4" points="420.02 508.02 416 510.34 416 505.7 420.02 508.02"/><polygon class="cls-4" points="420.02 515.11 416 517.43 416 512.79 420.02 515.11"/><path class="cls-4" d="M420.09,514v-4.86l-4.23,2.44Zm-.14-4.64v4.4l-3.81-2.2Z"/><path class="cls-4" d="M420.09,506.89V502l-4.23,2.44Zm-.14-4.64v4.4l-3.81-2.2Z"/><polygon class="cls-4" points="420.02 522.24 416 524.55 416 519.92 420.02 522.24"/><polygon class="cls-4" points="420.02 529.32 416 531.64 416 527 420.02 529.32"/><path class="cls-4" d="M420.09,528.25v-4.89l-4.23,2.45Zm-.14-4.64V528l-3.81-2.19Z"/><path class="cls-4" d="M420.09,521.11v-4.89l-4.23,2.44Zm-.14-4.64v4.39l-3.81-2.2Z"/><polygon class="cls-4" points="420.02 536.45 416 538.77 416 534.13 420.02 536.45"/><polygon class="cls-4" points="420.02 543.54 416 545.86 416 541.22 420.02 543.54"/><path class="cls-4" d="M420.09,542.46v-4.88L415.86,540Zm-.14-4.64v4.4l-3.81-2.2Z"/><path class="cls-4" d="M420.09,535.32v-4.88l-4.23,2.44Zm-.14-4.64v4.4l-3.81-2.2Z"/><polygon class="cls-4" points="420.02 550.67 416 552.99 416 548.35 420.02 550.67"/><polygon class="cls-4" points="420.02 557.76 416 560.08 416 555.44 420.02 557.76"/><path class="cls-4" d="M420.09,556.68V551.8l-4.23,2.44ZM420,552v4.4l-3.81-2.2Z"/><path class="cls-4" d="M420.09,549.54v-4.88l-4.23,2.44ZM420,544.9v4.4l-3.81-2.2Z"/><polygon class="cls-4" points="420.02 564.89 416 567.21 416 562.57 420.02 564.89"/><polygon class="cls-4" points="420.02 571.98 416 574.29 416 569.66 420.02 571.98"/><path class="cls-4" d="M420.09,570.9V566l-4.23,2.44Zm-.14-4.64v4.39l-3.81-2.19Z"/><path class="cls-4" d="M420.09,563.76v-4.88l-4.23,2.44Zm-.14-4.64v4.39l-3.81-2.19Z"/><polygon class="cls-4" points="420.02 579.1 416 581.42 416 576.78 420.02 579.1"/><polygon class="cls-4" points="420.02 586.19 416 588.51 416 583.87 420.02 586.19"/><path class="cls-4" d="M420.09,585.17v-4.89l-4.23,2.44Zm-.14-4.64v4.39l-3.81-2.2Z"/><path class="cls-4" d="M420.09,578v-4.89l-4.23,2.44Zm-.14-4.64v4.39l-3.81-2.2Z"/><polygon class="cls-4" points="420.02 593.32 416 595.64 416 591 420.02 593.32"/><polygon class="cls-4" points="420.02 600.41 416 602.73 416 598.09 420.02 600.41"/><path class="cls-4" d="M420.09,599.33v-4.88l-4.23,2.44Zm-.14-4.64v4.4l-3.81-2.2Z"/><path class="cls-4" d="M420.09,592.17v-4.88l-4.23,2.44Zm-.14-4.64v4.4l-3.81-2.2Z"/><polygon class="cls-4" points="420.02 607.54 416 609.86 416 605.22 420.02 607.54"/><polygon class="cls-4" points="420.02 614.63 416 616.95 416 612.31 420.02 614.63"/><path class="cls-4" d="M420.09,613.55v-4.88l-4.23,2.44Zm-.14-4.64v4.4l-3.81-2.2Z"/><path class="cls-4" d="M420.09,606.41v-4.88L415.86,604Zm-.14-4.64v4.4l-3.81-2.2Z"/><polygon class="cls-4" points="420.02 621.75 416 624.08 416 619.44 420.02 621.75"/><path class="cls-4" d="M420.09,627.77v-4.89l-4.23,2.45Zm-.14-4.64v4.39l-3.81-2.19Z"/><path class="cls-4" d="M420.09,620.63v-4.89l-4.23,2.43ZM420,616v4.39l-3.81-2.21Z"/><path class="cls-4" d="M7.77,7.74q50.57.43,101.14.55l25.29.06h177q50.58-.16,101.15-.55-50.58-.43-101.15-.55l-12.67-.08H134.17l-25.29.07Q58.35,7.36,7.77,7.74Z"/><polygon class="cls-4" points="5.65 5.65 56.75 5.71 107.85 5.75 210.04 5.79 312.24 5.75 363.34 5.71 414.44 5.65 363.34 5.58 312.24 5.54 210.04 5.51 107.85 5.54 56.75 5.58 5.65 5.65"/><polygon class="cls-4" points="8.92 0.07 11.11 4.09 6.73 4.09 8.92 0.07"/><polygon class="cls-4" points="15.61 0.07 17.8 4.09 13.42 4.09 15.61 0.07"/><path class="cls-4" d="M14.6,0H10l2.3,4.23ZM10.22.17h4.15L12.29,4Z"/><path class="cls-4" d="M7.86,0H3.25l2.3,4.23ZM3.52.17H7.67L5.52,4Z"/><polygon class="cls-4" points="2.19 0.07 4.38 4.09 0 4.09 2.19 0.07"/><polygon class="cls-4" points="22.62 0.07 24.94 4.09 20.29 4.09 22.62 0.07"/><polygon class="cls-4" points="29.71 0.07 32.04 4.09 27.39 4.09 29.71 0.07"/><path class="cls-4" d="M28.64,0H23.75l2.44,4.23ZM24,.14h4.4L26.19,4Z"/><path class="cls-4" d="M21.52,0H16.6L19,4.23ZM16.87.14h4.41L19.07,4Z"/><polygon class="cls-4" points="36.85 0.07 39.17 4.09 34.53 4.09 36.85 0.07"/><polygon class="cls-4" points="43.95 0.07 46.27 4.09 41.63 4.09 43.95 0.07"/><path class="cls-4" d="M42.87,0H38l2.45,4.23ZM38.23.14h4.4L40.43,4Z"/><path class="cls-4" d="M35.72,0H30.83l2.45,4.23ZM31.08.14h4.44L33.32,4Z"/><polygon class="cls-4" points="51.08 0.07 53.41 4.09 48.76 4.09 51.08 0.07"/><polygon class="cls-4" points="58.18 0.07 60.5 4.09 55.86 4.09 58.18 0.07"/><path class="cls-4" d="M57.11,0H52.22l2.44,4.23ZM52.46.14h4.4L54.66,4Z"/><path class="cls-4" d="M50,0H45.07l2.44,4.23ZM45.31.14h4.4L47.51,4Z"/><polygon class="cls-4" points="65.32 0.07 67.64 4.09 62.99 4.09 65.32 0.07"/><polygon class="cls-4" points="72.42 0.07 74.74 4.09 70.09 4.09 72.42 0.07"/><path class="cls-4" d="M71.34,0H66.45L68.9,4.23ZM66.69.14H71.1L68.9,4Z"/><path class="cls-4" d="M64.19,0H59.3l2.45,4.23ZM59.52.17h4.4L61.72,4Z"/><polygon class="cls-4" points="79.55 0.07 81.87 4.09 77.23 4.09 79.55 0.07"/><polygon class="cls-4" points="86.65 0.07 88.97 4.09 84.33 4.09 86.65 0.07"/><path class="cls-4" d="M85.57,0H80.68l2.45,4.23ZM80.93.14h4.4L83.13,4Z"/><path class="cls-4" d="M78.42,0h-4.9L76,4.23ZM73.78.14h4.4L76,4Z"/><polygon class="cls-4" points="93.78 0.07 96.11 4.09 91.46 4.09 93.78 0.07"/><polygon class="cls-4" points="100.88 0.07 103.2 4.09 98.56 4.09 100.88 0.07"/><path class="cls-4" d="M99.81,0H94.92l2.44,4.23ZM95.16.14h4.36L97.32,4Z"/><path class="cls-4" d="M92.66,0H87.77l2.44,4.23ZM88,.14h4.4L90.21,4Z"/><polygon class="cls-4" points="108.02 0.07 110.34 4.09 105.7 4.09 108.02 0.07"/><polygon class="cls-4" points="115.12 0.07 117.44 4.09 112.79 4.09 115.12 0.07"/><path class="cls-4" d="M114,0h-4.89l2.45,4.23ZM109.4.14h4.4L111.6,4Z"/><path class="cls-4" d="M106.89,0H102l2.45,4.23Zm-4.64.14h4.4L104.45,4Z"/><polygon class="cls-4" points="122.25 0.07 124.58 4.09 119.93 4.09 122.25 0.07"/><polygon class="cls-4" points="129.35 0.07 131.67 4.09 127.03 4.09 129.35 0.07"/><path class="cls-4" d="M128.27,0h-4.88l2.44,4.23Zm-4.64.14H128L125.83,4Z"/><path class="cls-4" d="M121.13,0h-4.89l2.44,4.23Zm-4.61.17h4.4L118.72,4Z"/><polygon class="cls-4" points="136.49 0.07 138.81 4.09 134.16 4.09 136.49 0.07"/><polygon class="cls-4" points="143.58 0.07 145.91 4.09 141.26 4.09 143.58 0.07"/><path class="cls-4" d="M142.52,0h-4.9l2.44,4.23Zm-4.65.14h4.4L140.07,4Z"/><path class="cls-4" d="M135.36,0h-4.84L133,4.23Zm-4.64.14h4.4L132.92,4Z"/><polygon class="cls-4" points="150.72 0.07 153.04 4.09 148.4 4.09 150.72 0.07"/><polygon class="cls-4" points="157.82 0.07 160.14 4.09 155.5 4.09 157.82 0.07"/><path class="cls-4" d="M156.74,0h-4.89l2.45,4.23ZM152.1.14h4.42L154.32,4Z"/><path class="cls-4" d="M149.59,0h-4.88l2.44,4.23ZM145,.14h4.4L147.15,4Z"/><polygon class="cls-4" points="165 0.07 167.32 4.09 162.67 4.09 165 0.07"/><polygon class="cls-4" points="172.09 0.07 174.41 4.09 169.77 4.09 172.09 0.07"/><path class="cls-4" d="M171,0h-4.89l2.44,4.23Zm-4.65.14h4.4L168.57,4Z"/><path class="cls-4" d="M163.87,0H159l2.44,4.23Zm-4.65.14h4.4L161.42,4Z"/><polygon class="cls-4" points="179.23 0.07 181.55 4.09 176.91 4.09 179.23 0.07"/><polygon class="cls-4" points="186.33 0.07 188.65 4.09 184 4.09 186.33 0.07"/><path class="cls-4" d="M185.25,0h-4.89l2.45,4.23Zm-4.64.14H185L182.81,4Z"/><path class="cls-4" d="M178.1,0h-4.89l2.45,4.23Zm-4.64.14h4.4L175.66,4Z"/><polygon class="cls-4" points="193.46 0.07 195.78 4.09 191.14 4.09 193.46 0.07"/><polygon class="cls-4" points="200.56 0.07 202.88 4.09 198.24 4.09 200.56 0.07"/><path class="cls-4" d="M199.52,0h-4.88l2.44,4.23Zm-4.64.14h4.4L197.08,4Z"/><path class="cls-4" d="M192.34,0h-4.89l2.44,4.23Zm-4.65.14h4.4L189.89,4Z"/><polygon class="cls-4" points="207.7 0.07 210.02 4.09 205.37 4.09 207.7 0.07"/><polygon class="cls-4" points="214.79 0.07 217.12 4.09 212.47 4.09 214.79 0.07"/><path class="cls-4" d="M213.72,0h-4.89l2.44,4.23Zm-4.65.14h4.45L211.32,4Z"/><path class="cls-4" d="M206.57,0h-4.89l2.45,4.23Zm-4.65.14h4.41L204.13,4Z"/><polygon class="cls-4" points="221.93 0.07 224.25 4.09 219.61 4.09 221.93 0.07"/><polygon class="cls-4" points="229.03 0.07 231.35 4.09 226.71 4.09 229.03 0.07"/><path class="cls-4" d="M228,0h-4.89l2.45,4.23Zm-4.64.14h4.4L225.51,4Z"/><path class="cls-4" d="M220.8,0h-4.89l2.45,4.23Zm-4.64.14h4.36L218.32,4Z"/><polygon class="cls-4" points="236.16 0.07 238.49 4.09 233.84 4.09 236.16 0.07"/><polygon class="cls-4" points="243.26 0.07 245.58 4.09 240.94 4.09 243.26 0.07"/><path class="cls-4" d="M242.19,0H237.3l2.44,4.23Zm-4.67.17h4.4L239.72,4Z"/><path class="cls-4" d="M235,0h-4.89l2.44,4.23Zm-4.65.14h4.4L232.59,4Z"/><polygon class="cls-4" points="250.4 0.07 252.72 4.09 248.08 4.09 250.4 0.07"/><polygon class="cls-4" points="257.5 0.07 259.82 4.09 255.17 4.09 257.5 0.07"/><path class="cls-4" d="M256.42,0h-4.9L254,4.23Zm-4.64.14h4.4L254,4Z"/><path class="cls-4" d="M249.27,0h-4.89l2.45,4.23Zm-4.64.14H249L246.83,4Z"/><polygon class="cls-4" points="264.63 0.07 266.95 4.09 262.31 4.09 264.63 0.07"/><polygon class="cls-4" points="271.73 0.07 274.05 4.09 269.41 4.09 271.73 0.07"/><path class="cls-4" d="M270.65,0h-4.89l2.45,4.23ZM266,.14h4.4L268.21,4Z"/><path class="cls-4" d="M263.52,0h-4.9l2.44,4.23Zm-4.64.14h4.4L261.08,4Z"/><polygon class="cls-4" points="278.87 0.07 281.19 4.09 276.54 4.09 278.87 0.07"/><polygon class="cls-4" points="285.96 0.07 288.29 4.09 283.64 4.09 285.96 0.07"/><path class="cls-4" d="M284.89,0H280l2.44,4.23Zm-4.65.14h4.4L282.44,4Z"/><path class="cls-4" d="M277.74,0h-4.89l2.44,4.23Zm-4.65.14h4.43L275.32,4Z"/><polygon class="cls-4" points="293.1 0.07 295.42 4.09 290.78 4.09 293.1 0.07"/><polygon class="cls-4" points="300.2 0.07 302.52 4.09 297.88 4.09 300.2 0.07"/><path class="cls-4" d="M299.12,0h-4.89l2.45,4.23Zm-4.6.17h4.4L296.72,4Z"/><path class="cls-4" d="M292,0h-4.89l2.45,4.23Zm-4.64.14h4.4L289.53,4Z"/><polygon class="cls-4" points="307.33 0.07 309.66 4.09 305.01 4.09 307.33 0.07"/><polygon class="cls-4" points="314.43 0.07 316.75 4.09 312.11 4.09 314.43 0.07"/><path class="cls-4" d="M313.36,0h-4.84L311,4.23Zm-4.65.14h4.4L310.91,4Z"/><path class="cls-4" d="M306.21,0h-4.89l2.44,4.23Zm-4.69.17h4.4L303.72,4Z"/><polygon class="cls-4" points="321.57 0.07 323.89 4.09 319.25 4.09 321.57 0.07"/><polygon class="cls-4" points="328.67 0.07 330.99 4.09 326.34 4.09 328.67 0.07"/><path class="cls-4" d="M327.59,0H322.7l2.44,4.23Zm-4.65.14h4.41L325.14,4Z"/><path class="cls-4" d="M320.44,0h-4.92L318,4.23ZM315.8.14h4.4L318,4Z"/><polygon class="cls-4" points="335.8 0.07 338.12 4.09 333.48 4.09 335.8 0.07"/><polygon class="cls-4" points="342.9 0.07 345.22 4.09 340.58 4.09 342.9 0.07"/><path class="cls-4" d="M341.82,0h-4.89l2.45,4.23Zm-4.64.14h4.4L339.38,4Z"/><path class="cls-4" d="M334.67,0h-4.88l2.44,4.23ZM330,.14h4.4L332.23,4Z"/><polygon class="cls-4" points="350.04 0.07 352.36 4.09 347.71 4.09 350.04 0.07"/><polygon class="cls-4" points="357.13 0.07 359.45 4.09 354.81 4.09 357.13 0.07"/><path class="cls-4" d="M356.06,0h-4.89l2.44,4.23Zm-4.65.14h4.4L353.61,4Z"/><path class="cls-4" d="M348.91,0H344l2.44,4.23Zm-4.65.14h4.4L346.46,4Z"/><polygon class="cls-4" points="364.31 0.07 366.63 4.09 361.99 4.09 364.31 0.07"/><polygon class="cls-4" points="371.41 0.07 373.73 4.09 369.08 4.09 371.41 0.07"/><path class="cls-4" d="M370.33,0h-4.89l2.45,4.23Zm-4.64.14h4.4L367.89,4Z"/><path class="cls-4" d="M363.18,0h-4.89l2.45,4.23Zm-4.66.17h4.4L360.72,4Z"/><polygon class="cls-4" points="378.54 0.07 380.87 4.09 376.22 4.09 378.54 0.07"/><polygon class="cls-4" points="385.64 0.07 387.96 4.09 383.32 4.09 385.64 0.07"/><path class="cls-4" d="M384.52,0h-4.88l2.44,4.23Zm-4.64.14h4.4L382.08,4Z"/><path class="cls-4" d="M377.42,0h-4.9L375,4.23Zm-4.65.14h4.4L375,4Z"/><polygon class="cls-4" points="392.78 0.07 395.1 4.09 390.45 4.09 392.78 0.07"/><polygon class="cls-4" points="399.87 0.07 402.2 4.09 397.55 4.09 399.87 0.07"/><path class="cls-4" d="M398.8,0h-4.89l2.44,4.23Zm-4.65.14h4.37L396.32,4Z"/><path class="cls-4" d="M391.65,0h-4.89l2.45,4.23ZM387,.14h4.4L389.21,4Z"/><polygon class="cls-4" points="407.01 0.07 409.33 4.09 404.69 4.09 407.01 0.07"/><polygon class="cls-4" points="414.11 0.07 416.43 4.09 411.79 4.09 414.11 0.07"/><path class="cls-4" d="M413,0h-4.89l2.45,4.23Zm-4.64.14h4.4L410.59,4Z"/><path class="cls-4" d="M405.88,0H401l2.44,4.23Zm-4.64.14h4.4L403.44,4Z"/><path class="cls-4" d="M420.12,0h-4.89l2.44,4.23Zm-4.6.17h4.4L417.72,4Z"/><path class="cls-4" d="M412.35,622.53q-50.58-.43-101.15-.54l-25.29-.07H121.54L108.9,622q-50.58.15-101.15.54,50.57.45,101.15.55l12.62.11H286l25.29-.07Q361.77,622.93,412.35,622.53Z"/><polygon class="cls-4" points="414.43 624.63 363.33 624.56 312.24 624.52 210.04 624.49 107.85 624.52 56.75 624.56 5.65 624.63 56.75 624.7 107.85 624.74 210.04 624.77 312.24 624.73 363.33 624.7 414.43 624.63"/><polygon class="cls-4" points="408.82 630.2 406.66 626.18 410.99 626.18 408.82 630.2"/><polygon class="cls-4" points="402.2 630.2 400.04 626.18 404.37 626.18 402.2 630.2"/><path class="cls-4" d="M403.21,630.27h4.56L405.52,626Zm4.31-.1h-4.1l2.05-3.8Z"/><path class="cls-4" d="M409.88,630.27h4.56L412.16,626Zm4.33-.14h-4.1l2.05-3.8Z"/><polygon class="cls-4" points="395.27 630.2 392.98 626.18 397.57 626.18 395.27 630.2"/><polygon class="cls-4" points="388.25 630.2 385.95 626.18 390.55 626.18 388.25 630.2"/><path class="cls-4" d="M389.32,630.27h4.84L391.74,626Zm4.6-.14h-4.4l2.18-3.8Z"/><path class="cls-4" d="M396.39,630.27h4.84L398.81,626Zm4.6-.14h-4.35l2.17-3.8Z"/><polygon class="cls-4" points="381.19 630.2 378.89 626.18 383.49 626.18 381.19 630.2"/><polygon class="cls-4" points="374.17 630.2 371.87 626.18 376.47 626.18 374.17 630.2"/><path class="cls-4" d="M375.24,630.27h4.84L377.66,626Zm4.59-.14h-4.31l2.18-3.8Z"/><path class="cls-4" d="M382.31,630.27h4.84L384.73,626Zm4.6-.14h-4.39l2.18-3.8Z"/><polygon class="cls-4" points="367.11 630.2 364.81 626.18 369.41 626.18 367.11 630.2"/><polygon class="cls-4" points="360.09 630.2 357.79 626.18 362.38 626.18 360.09 630.2"/><path class="cls-4" d="M361.16,630.27H366L363.57,626Zm4.59-.14H361.4l2.17-3.8Z"/><path class="cls-4" d="M368.23,630.27h4.84L370.65,626Zm4.59-.14h-4.3l2.18-3.8Z"/><polygon class="cls-4" points="353.03 630.2 350.73 626.18 355.32 626.18 353.03 630.2"/><polygon class="cls-4" points="346 630.2 343.71 626.18 348.3 626.18 346 630.2"/><path class="cls-4" d="M347.07,630.27h4.84L349.52,626Zm4.6-.14h-4.35l2.17-3.8Z"/><path class="cls-4" d="M354.15,630.27H359L356.57,626Zm4.59-.14h-4.35l2.18-3.8Z"/><polygon class="cls-4" points="338.94 630.2 336.65 626.18 341.24 626.18 338.94 630.2"/><polygon class="cls-4" points="331.92 630.2 329.62 626.18 334.22 626.18 331.92 630.2"/><path class="cls-4" d="M333,630.27h4.84L335.41,626Zm4.6-.14h-4.36l2.18-3.8Z"/><path class="cls-4" d="M340.06,630.27h4.84L342.52,626Zm4.6-.14h-4.35l2.17-3.8Z"/><polygon class="cls-4" points="324.86 630.2 322.56 626.18 327.16 626.18 324.86 630.2"/><polygon class="cls-4" points="317.84 630.2 315.54 626.18 320.14 626.18 317.84 630.2"/><path class="cls-4" d="M318.91,630.27h4.84L321.33,626Zm4.61-.1h-4.35l2.18-3.8Z"/><path class="cls-4" d="M326,630.27h4.84L328.4,626Zm4.6-.14h-4.36l2.18-3.8Z"/><polygon class="cls-4" points="310.78 630.2 308.48 626.18 313.08 626.18 310.78 630.2"/><polygon class="cls-4" points="303.76 630.2 301.46 626.18 306.06 626.18 303.76 630.2"/><path class="cls-4" d="M304.83,630.27h4.83L307.25,626Zm4.59-.14h-4.35l2.18-3.8Z"/><path class="cls-4" d="M311.9,630.27h4.84L314.32,626Zm4.62-.1h-4.36l2.18-3.8Z"/><polygon class="cls-4" points="296.7 630.2 294.4 626.18 298.99 626.18 296.7 630.2"/><polygon class="cls-4" points="289.68 630.2 287.38 626.18 291.97 626.18 289.68 630.2"/><path class="cls-4" d="M290.75,630.27h4.83L293.16,626Zm4.59-.14H291l2.17-3.8Z"/><path class="cls-4" d="M297.82,630.27h4.83L300.24,626Zm4.59-.14h-4.35l2.18-3.8Z"/><polygon class="cls-4" points="282.61 630.2 280.32 626.18 284.91 626.18 282.61 630.2"/><polygon class="cls-4" points="275.59 630.2 273.3 626.18 277.89 626.18 275.59 630.2"/><path class="cls-4" d="M276.66,630.27h4.86L279.1,626Zm4.6-.14H276.9l2.18-3.8Z"/><path class="cls-4" d="M283.74,630.27h4.83L286.15,626Zm4.59-.14H284l2.17-3.8Z"/><polygon class="cls-4" points="268.53 630.2 266.23 626.18 270.83 626.18 268.53 630.2"/><polygon class="cls-4" points="261.51 630.2 259.21 626.18 263.81 626.18 261.51 630.2"/><path class="cls-4" d="M262.58,630.27h4.84L265,626Zm4.6-.14h-4.36l2.18-3.8Z"/><path class="cls-4" d="M269.65,630.27h4.87L272.1,626Zm4.6-.14h-4.36l2.18-3.8Z"/><polygon class="cls-4" points="254.41 630.2 252.11 626.18 256.71 626.18 254.41 630.2"/><polygon class="cls-4" points="247.39 630.2 245.09 626.18 249.69 626.18 247.39 630.2"/><path class="cls-4" d="M248.46,630.27h4.84L250.88,626Zm4.59-.14H248.7l2.18-3.8Z"/><path class="cls-4" d="M255.52,630.27h4.84L257.94,626Zm4.6-.14h-4.36l2.18-3.8Z"/><polygon class="cls-4" points="240.33 630.2 238.03 626.18 242.63 626.18 240.33 630.2"/><polygon class="cls-4" points="233.31 630.2 231.01 626.18 235.6 626.18 233.31 630.2"/><path class="cls-4" d="M234.38,630.27h4.83L236.79,626Zm4.59-.14h-4.35l2.17-3.8Z"/><path class="cls-4" d="M241.45,630.27h4.84L243.87,626Zm4.59-.14h-4.35l2.18-3.8Z"/><polygon class="cls-4" points="226.25 630.2 223.95 626.18 228.54 626.18 226.25 630.2"/><polygon class="cls-4" points="219.22 630.2 216.93 626.18 221.52 626.18 219.22 630.2"/><path class="cls-4" d="M220.29,630.27h4.84L222.71,626Zm4.6-.14h-4.37l2.17-3.8Z"/><path class="cls-4" d="M227.37,630.27h4.83L229.78,626Zm4.59-.14h-4.35l2.17-3.8Z"/><polygon class="cls-4" points="212.16 630.2 209.87 626.18 214.46 626.18 212.16 630.2"/><polygon class="cls-4" points="205.14 630.2 202.84 626.18 207.44 626.18 205.14 630.2"/><path class="cls-4" d="M206.21,630.27h4.84L208.63,626Zm4.6-.14h-4.36l2.18-3.8Z"/><path class="cls-4" d="M213.28,630.27h4.84L215.7,626Zm4.6-.14h-4.36l2.17-3.8Z"/><polygon class="cls-4" points="198.08 630.2 195.78 626.18 200.38 626.18 198.08 630.2"/><polygon class="cls-4" points="191.06 630.2 188.76 626.18 193.36 626.18 191.06 630.2"/><path class="cls-4" d="M192.13,630.27H197L194.52,626Zm4.59-.14h-4.35l2.18-3.8Z"/><path class="cls-4" d="M199.2,630.27H204L201.62,626Zm4.6-.14h-4.36l2.18-3.8Z"/><polygon class="cls-4" points="184 630.2 181.7 626.18 186.3 626.18 184 630.2"/><polygon class="cls-4" points="176.98 630.2 174.68 626.18 179.27 626.18 176.98 630.2"/><path class="cls-4" d="M178.05,630.27h4.83L180.52,626Zm4.59-.14h-4.35l2.18-3.8Z"/><path class="cls-4" d="M185.12,630.27H190L187.52,626Zm4.59-.14h-4.35l2.18-3.8Z"/><polygon class="cls-4" points="169.92 630.2 167.62 626.18 172.21 626.18 169.92 630.2"/><polygon class="cls-4" points="162.89 630.2 160.6 626.18 165.19 626.18 162.89 630.2"/><path class="cls-4" d="M164,630.27h4.84L166.38,626Zm4.56-.1h-4.35l2.17-3.8Z"/><path class="cls-4" d="M171,630.27h4.83L173.46,626Zm4.59-.14h-4.35l2.18-3.8Z"/><polygon class="cls-4" points="155.83 630.2 153.54 626.18 158.13 626.18 155.83 630.2"/><polygon class="cls-4" points="148.81 630.2 146.51 626.18 151.11 626.18 148.81 630.2"/><path class="cls-4" d="M149.88,630.27h4.84L152.3,626Zm4.64-.1h-4.4l2.18-3.8Z"/><path class="cls-4" d="M157,630.27h4.83L159.37,626Zm4.56-.1h-4.35l2.17-3.8Z"/><polygon class="cls-4" points="141.75 630.2 139.45 626.18 144.05 626.18 141.75 630.2"/><polygon class="cls-4" points="134.73 630.2 132.43 626.18 137.03 626.18 134.73 630.2"/><path class="cls-4" d="M135.8,630.27h4.84L138.22,626Zm4.6-.14H136l2.18-3.8Z"/><path class="cls-4" d="M142.87,630.27h4.84L145.29,626Zm4.65-.1h-4.36l2.18-3.8Z"/><polygon class="cls-4" points="127.67 630.2 125.37 626.18 129.97 626.18 127.67 630.2"/><polygon class="cls-4" points="120.65 630.2 118.35 626.18 122.94 626.18 120.65 630.2"/><path class="cls-4" d="M121.72,630.27h4.8L124.11,626Zm4.59-.14H122l2.18-3.8Z"/><path class="cls-4" d="M128.79,630.27h4.84L131.21,626Zm4.6-.14H129l2.18-3.8Z"/><polygon class="cls-4" points="113.59 630.2 111.29 626.18 115.88 626.18 113.59 630.2"/><polygon class="cls-4" points="106.56 630.2 104.27 626.18 108.86 626.18 106.56 630.2"/><path class="cls-4" d="M107.64,630.27h4.88L110.1,626Zm4.59-.14h-4.35l2.17-3.8Z"/><path class="cls-4" d="M114.71,630.27h4.81L117.11,626Zm4.59-.14H115l2.18-3.8Z"/><polygon class="cls-4" points="99.5 630.2 97.21 626.18 101.8 626.18 99.5 630.2"/><polygon class="cls-4" points="92.48 630.2 90.19 626.18 94.78 626.18 92.48 630.2"/><path class="cls-4" d="M93.52,630.27h4.84L95.94,626Zm4.6-.14H93.76l2.18-3.8Z"/><path class="cls-4" d="M100.63,630.27h4.83L103,626Zm4.59-.14h-4.35l2.17-3.8Z"/><polygon class="cls-4" points="85.42 630.2 83.13 626.18 87.72 626.18 85.42 630.2"/><polygon class="cls-4" points="78.4 630.2 76.1 626.18 80.7 626.18 78.4 630.2"/><path class="cls-4" d="M79.52,630.27h4.84L81.94,626Zm4.6-.14H79.76l2.18-3.8Z"/><path class="cls-4" d="M86.52,630.27h4.84L88.94,626Zm4.6-.14H86.77l2.17-3.8Z"/><polygon class="cls-4" points="71.34 630.2 69.04 626.18 73.64 626.18 71.34 630.2"/><polygon class="cls-4" points="64.32 630.2 62.02 626.18 66.62 626.18 64.32 630.2"/><path class="cls-4" d="M65.39,630.27h4.84L67.81,626Zm4.59-.14H65.63l2.18-3.8Z"/><path class="cls-4" d="M72.46,630.27H77.3L74.88,626Zm4.6-.14H72.7l2.18-3.8Z"/><polygon class="cls-4" points="57.22 630.2 54.92 626.18 59.52 626.18 57.22 630.2"/><polygon class="cls-4" points="50.2 630.2 47.9 626.18 52.49 626.18 50.2 630.2"/><path class="cls-4" d="M51.27,630.27H56.1L53.68,626Zm4.59-.14H51.52l2.17-3.8Z"/><path class="cls-4" d="M58.34,630.27h4.84L60.76,626Zm4.59-.14H58.58l2.18-3.8Z"/><polygon class="cls-4" points="43.14 630.2 40.84 626.18 45.43 626.18 43.14 630.2"/><polygon class="cls-4" points="36.11 630.2 33.82 626.18 38.41 626.18 36.11 630.2"/><path class="cls-4" d="M37.18,630.27H42L39.6,626Zm4.6-.14H37.43l2.17-3.8Z"/><path class="cls-4" d="M44.26,630.27h4.83L46.68,626Zm4.59-.14H44.52l2.18-3.8Z"/><polygon class="cls-4" points="29.05 630.2 26.76 626.18 31.35 626.18 29.05 630.2"/><polygon class="cls-4" points="22.03 630.2 19.73 626.18 24.33 626.18 22.03 630.2"/><path class="cls-4" d="M23.1,630.27h4.84L25.52,626Zm4.6-.14H23.34l2.18-3.8Z"/><path class="cls-4" d="M30.17,630.27H35L32.59,626Zm4.6-.14H30.42l2.17-3.8Z"/><polygon class="cls-4" points="14.97 630.2 12.67 626.18 17.27 626.18 14.97 630.2"/><polygon class="cls-4" points="7.95 630.2 5.65 626.18 10.25 626.18 7.95 630.2"/><path class="cls-4" d="M9,630.27h4.84L11.44,626Zm4.59-.14H9.26l2.18-3.8Z"/><path class="cls-4" d="M16.09,630.27h4.84L18.52,626Zm4.6-.14H16.33l2.18-3.8Z"/></g><g id="line_1" data-name="line 1"><rect id="_bangla_meaning" data-name=" bangla meaning" class="cls-6" x="7.67" y="76.61" width="404.63" height="13.26"/><rect id="top_symbol_of_the_line_arabic" data-name="top symbol of the line arabic" class="cls-6" x="7.67" y="25.39" width="404.63" height="11.5"/><rect id="arabic_text" data-name="arabic text" class="cls-6" x="7.67" y="36.89" width="404.63" height="39.72"/></g><g id="line_2" data-name="line 2"><rect id="_bangla_meaning-2" data-name=" bangla meaning" class="cls-6" x="7.74" y="141.09" width="404.63" height="13.26"/><rect id="top_symbol_of_the_line_arabic-2" data-name="top symbol of the line arabic" class="cls-6" x="7.74" y="89.87" width="404.63" height="11.5"/><rect id="arabic_text-2" data-name="arabic text" class="cls-6" x="7.74" y="101.37" width="404.63" height="39.72"/></g><g id="line3"><rect id="_bangla_meaning-3" data-name=" bangla meaning" class="cls-6" x="7.74" y="205.57" width="404.63" height="13.26"/><rect id="top_symbol_of_the_line_arabic-3" data-name="top symbol of the line arabic" class="cls-6" x="7.74" y="154.35" width="404.63" height="11.5"/><rect id="arabic_text-3" data-name="arabic text" class="cls-6" x="7.74" y="165.85" width="404.63" height="39.72"/></g><g id="line_4" data-name="line 4"><rect id="_bangla_meaning-4" data-name=" bangla meaning" class="cls-6" x="7.74" y="270.22" width="404.63" height="13.26"/><rect id="top_symbol_of_the_line_arabic-4" data-name="top symbol of the line arabic" class="cls-6" x="7.74" y="219" width="404.63" height="11.5"/><rect id="arabic_text-4" data-name="arabic text" class="cls-6" x="7.74" y="230.5" width="404.63" height="39.72"/></g><g id="line_5" data-name="line 5"><rect id="_bangla_meaning-5" data-name=" bangla meaning" class="cls-6" x="7.74" y="334.7" width="404.63" height="13.26"/><rect id="top_symbol_of_the_line_arabic-5" data-name="top symbol of the line arabic" class="cls-6" x="7.74" y="283.48" width="404.63" height="11.5"/><rect id="arabic_text-5" data-name="arabic text" class="cls-6" x="7.74" y="294.98" width="404.63" height="39.72"/></g><g id="line_6" data-name="line 6"><rect id="_bangla_meaning-6" data-name=" bangla meaning" class="cls-6" x="7.74" y="399.18" width="404.63" height="13.26"/><rect id="top_symbol_of_the_line_arabic-6" data-name="top symbol of the line arabic" class="cls-6" x="7.74" y="347.96" width="404.63" height="11.5"/><rect id="arabic_text-6" data-name="arabic text" class="cls-6" x="7.74" y="359.46" width="404.63" height="39.72"/></g><g id="line_7" data-name="line 7"><rect id="_bangla_meaning-7" data-name=" bangla meaning" class="cls-6" x="7.74" y="463.66" width="404.63" height="13.26"/><rect id="top_symbol_of_the_line_arabic-7" data-name="top symbol of the line arabic" class="cls-6" x="7.74" y="412.44" width="404.63" height="11.5"/><rect id="arabic_text-7" data-name="arabic text" class="cls-6" x="7.74" y="423.94" width="404.63" height="39.72"/></g><g id="line_8" data-name="line 8"><rect id="_bangla_meaning-8" data-name=" bangla meaning" class="cls-6" x="7.74" y="528.32" width="404.63" height="13.26"/><rect id="top_symbol_of_the_line_arabic-8" data-name="top symbol of the line arabic" class="cls-6" x="7.74" y="477.1" width="404.63" height="11.5"/><rect id="arabic_text-8" data-name="arabic text" class="cls-6" x="7.74" y="488.6" width="404.63" height="39.72"/></g><g id="line_9" data-name="line 9"><rect id="_bangla_meaning-9" data-name=" bangla meaning" class="cls-6" x="7.74" y="592.8" width="404.63" height="13.26"/><rect id="top_symbol_of_the_line_arabic-9" data-name="top symbol of the line arabic" class="cls-6" x="7.74" y="541.58" width="404.63" height="11.5"/><rect id="arabic_text-9" data-name="arabic text" class="cls-6" x="7.74" y="553.08" width="404.63" height="39.72"/></g></svg>
